<svg width="58" height="80" viewBox="0 0 58 80" fill="none" xmlns="http://www.w3.org/2000/svg">
<path d="M58 64.5601L31.5375 79.2907C29.725 80.2364 27.9125 80.2364 26.1 79.2907L0 64.5601L47.3062 16.7311L48.575 16.3674C49.6625 16.3674 50.2787 16.8402 50.3875 17.8222L58 64.5601ZM19.3938 17.4585L2.9 44.9193L9.7875 1.45488C9.89625 0.472835 10.5125 0 11.6 0C12.325 0 12.7962 0.218232 13.05 0.909298L20.8438 15.2762L19.3938 17.4585ZM35.7063 22.0414L1.0875 56.922L27.3688 12.1846C27.7313 11.4571 28.275 11.1298 29 11.1298C29.725 11.1298 30.1962 11.4571 30.45 12.1846L35.7063 22.0414Z" fill="white"/>
</svg>
