<svg width="100" height="100" viewBox="0 0 100 100" fill="none" xmlns="http://www.w3.org/2000/svg">
<path d="M2.96472 42.9447L31.8864 13.973L40.3428 22.4794C39.1419 26.7326 41.0933 31.386 44.9962 33.6377V61.3585C41.994 63.0598 39.9925 66.3122 39.9925 70.015C39.9925 72.6692 41.0469 75.2146 42.9236 77.0914C44.8004 78.9682 47.3458 80.0225 50 80.0225C52.6542 80.0225 55.1996 78.9682 57.0764 77.0914C58.9531 75.2146 60.0075 72.6692 60.0075 70.015C60.0075 66.3122 58.006 63.0598 55.0038 61.3585V37.0403L65.3615 47.4981C65.0113 48.2487 65.0113 49.0993 65.0113 50C65.0113 52.6542 66.0656 55.1996 67.9424 57.0764C69.8192 58.9531 72.3646 60.0075 75.0188 60.0075C77.6729 60.0075 80.2184 58.9531 82.0951 57.0764C83.9719 55.1996 85.0263 52.6542 85.0263 50C85.0263 47.3458 83.9719 44.8004 82.0951 42.9236C80.2184 41.0469 77.6729 39.9925 75.0188 39.9925C74.1181 39.9925 73.2675 39.9925 72.5169 40.3428L59.6572 27.4831C60.9582 22.8296 58.5564 17.7258 53.9029 15.7743C51.7513 14.9737 49.4996 14.7736 47.4981 15.324L38.9917 6.86765L42.9447 2.96472C46.8476 -0.988241 53.1524 -0.988241 57.0553 2.96472L97.0353 42.9447C100.988 46.8476 100.988 53.1524 97.0353 57.0553L57.0553 97.0353C53.1524 100.988 46.8476 100.988 42.9447 97.0353L2.96472 57.0553C-0.988241 53.1524 -0.988241 46.8476 2.96472 42.9447Z" fill="white"/>
</svg>
