<svg width="100" height="100" viewBox="0 0 100 100" fill="none" xmlns="http://www.w3.org/2000/svg">
<path d="M0 0H100V100H0V0ZM26.2778 83.5556C28.5 88.2778 32.8889 92.1667 40.3889 92.1667C48.7222 92.1667 54.4444 87.7222 54.4444 78V45.8889H45V77.7778C45 82.5556 43.0556 83.7778 40 83.7778C36.7778 83.7778 35.4444 81.5555 33.9444 78.9444L26.2778 83.5556ZM59.5 82.5556C62.2778 88 67.8889 92.1667 76.6667 92.1667C85.5555 92.1667 92.2222 87.5555 92.2222 79.0555C92.2222 71.2222 87.7222 67.7222 79.7222 64.2778L77.3889 63.2778C73.3333 61.5556 71.6111 60.3889 71.6111 57.6111C71.6111 55.3333 73.3333 53.5556 76.1111 53.5556C78.7778 53.5556 80.5556 54.7222 82.1667 57.6111L89.4444 52.7778C86.3889 47.4444 82.0556 45.3889 76.1111 45.3889C67.7222 45.3889 62.3333 50.7222 62.3333 57.7778C62.3333 65.4444 66.8333 69.0556 73.6111 71.9444L75.9444 72.9444C80.2778 74.8333 82.8333 76 82.8333 79.2222C82.8333 81.8889 80.3333 83.8333 76.4444 83.8333C71.8333 83.8333 69.1667 81.4444 67.1667 78.1111L59.5 82.5556Z" fill="white"/>
</svg>
