<?xml version="1.0" standalone="no"?>
<!DOCTYPE svg PUBLIC "-//W3C//DTD SVG 20010904//EN"
 "http://www.w3.org/TR/2001/REC-SVG-20010904/DTD/svg10.dtd">
<svg version="1.0" xmlns="http://www.w3.org/2000/svg"
 width="164.000000pt" height="164.000000pt" viewBox="0 0 164.000000 164.000000"
 preserveAspectRatio="xMidYMid meet">
<metadata>
Created by potrace 1.16, written by Peter Selinger 2001-2019
</metadata>
<g transform="translate(0.000000,164.000000) scale(0.100000,-0.100000)"
fill="#FFFFFF" stroke="none">
<path d="M47 1323 c-4 -3 -7 -224 -7 -490 l0 -483 90 0 90 0 0 351 c0 199 4
348 9 345 5 -3 75 -96 156 -206 126 -172 150 -201 170 -198 18 2 78 75 240
293 120 160 219 292 221 294 7 8 16 -8 81 -155 113 -260 153 -354 153 -364 0
-6 -71 -10 -198 -10 l-197 0 -102 -133 c-56 -72 -116 -151 -134 -174 l-31 -43
105 0 105 0 71 95 71 95 194 0 193 0 43 -95 43 -95 100 0 c75 0 98 3 94 13
-17 42 -408 909 -421 935 l-17 32 -149 0 -149 0 -34 -42 c-19 -24 -87 -116
-151 -205 -64 -89 -121 -165 -125 -167 -4 -3 -71 81 -147 187 -76 105 -147
199 -156 209 -15 15 -35 18 -111 18 -52 0 -97 -3 -100 -7z"/>
</g>
</svg>
