<svg width="107" height="120" viewBox="0 0 107 120" fill="none" xmlns="http://www.w3.org/2000/svg">
<path d="M53.202 0C51.6059 0 49.9507 0.413793 48.5911 1.18227L4.61084 26.601C1.7734 28.2562 0 31.3301 0 34.6404V85.3596C0 88.67 1.7734 91.7438 4.61084 93.399L16.1379 100.02C21.7537 102.739 23.6453 102.798 26.2463 102.798C34.5222 102.798 39.3103 97.7734 39.3103 89.0246V38.9557C39.3103 38.2463 38.7192 37.6552 38.0099 37.6552H32.5123C31.7438 37.6552 31.1527 38.2463 31.1527 38.9557V89.0246C31.1527 92.9261 27.133 96.7685 20.6897 93.5172L8.57143 86.601C8.15763 86.3054 7.92118 85.8325 7.92118 85.3596V34.6404C7.92118 34.1084 8.15763 33.6355 8.57143 33.399L52.5517 8.03941C52.9064 7.80296 53.4975 7.80296 53.8522 8.03941L97.8325 33.399C98.2463 33.6355 98.4828 34.1084 98.4828 34.6404V85.3596C98.4828 85.8325 98.2463 86.3054 97.8325 86.601L53.8522 111.961C53.4975 112.197 52.9064 112.197 52.4926 111.961L41.3793 105.222C40.9064 105.044 40.4335 104.985 40.1379 105.163C37.0049 106.936 36.4138 107.291 33.5172 108.177C32.8079 108.414 31.6847 108.828 33.931 110.069L48.5911 118.759C50.0099 119.586 51.5468 120 53.202 120C54.8571 120 56.3941 119.586 57.8128 118.759L101.793 93.399C104.631 91.7438 106.404 88.67 106.404 85.3596V34.6404C106.404 31.3301 104.631 28.2562 101.793 26.601L57.8128 1.18227C56.4532 0.413793 54.8571 0 53.202 0ZM65.0246 36.3547C52.4926 36.3547 44.9852 41.6158 44.9852 50.4828C44.9852 60 52.4335 62.7783 64.4926 63.9606C78.8571 65.3793 79.9803 67.5074 79.9803 70.3448C79.9803 75.2512 76.0197 77.3202 66.798 77.3202C55.0936 77.3202 52.6108 74.4236 51.7241 68.6305C51.6059 68.0394 51.0739 67.5665 50.4236 67.5665H44.7488C44.0394 67.5665 43.5074 68.0985 43.5074 68.867C43.5074 76.197 47.5271 85.064 66.798 85.064C80.6897 85.064 88.67 79.5665 88.67 69.9901C88.67 60.4729 82.2857 57.9901 68.7488 56.1576C55.0936 54.3842 53.734 53.4384 53.734 50.2463C53.734 47.5862 54.9163 44.0394 65.0246 44.0394C73.8916 44.0394 77.3793 45.9901 78.7389 52.0788C78.8571 52.6699 79.3892 53.0837 79.9803 53.0837H85.7143C86.0099 53.0837 86.3645 52.9655 86.601 52.67C86.8374 52.4335 87.0148 52.0788 86.8966 51.7241C86.069 41.202 79.0936 36.3547 65.0246 36.3547Z" fill="white"/>
</svg>
