<?xml version="1.0" standalone="no"?>
<!DOCTYPE svg PUBLIC "-//W3C//DTD SVG 20010904//EN"
 "http://www.w3.org/TR/2001/REC-SVG-20010904/DTD/svg10.dtd">
<svg version="1.0" xmlns="http://www.w3.org/2000/svg"
 width="200.000000pt" height="200.000000pt" viewBox="0 0 200.000000 200.000000"
 preserveAspectRatio="xMidYMid meet">
<g transform="translate(0.000000,200.000000) scale(0.100000,-0.100000)"
fill="#FFFFFF" stroke="none">
<path d="M602 1598 c-55 -12 -116 -69 -131 -123 -15 -53 -15 -895 0 -948 13
-50 61 -103 106 -118 19 -6 61 -9 92 -7 52 4 81 20 434 232 436 263 432 259
425 373 -2 51 -9 77 -26 100 -16 23 -131 97 -380 246 -196 118 -370 221 -387
229 -43 22 -84 26 -133 16z"/>
</g>
</svg>
