<svg width="100" height="100" viewBox="0 0 100 100" fill="none" xmlns="http://www.w3.org/2000/svg">
<path d="M85.7 25C89.4926 25 93.1299 26.5066 95.8116 29.1884C98.4934 31.8701 100 35.5074 100 39.3V58.2C100 61.9926 98.4934 65.6299 95.8116 68.3116C93.1299 70.9934 89.4926 72.5 85.7 72.5H50C50 74.45 51.6 77.3 53.55 77.3H75V85.7C75 89.4926 73.4934 93.1299 70.8116 95.8116C68.1299 98.4934 64.4926 100 60.7 100H39.3C35.5074 100 31.8701 98.4934 29.1884 95.8116C26.5066 93.1299 25 89.4926 25 85.7V66.95C25 59.05 31.4 52.7 39.3 52.7H65.55C73.45 52.7 79.8 46.3 79.8 38.4V25H85.7ZM64.3 83.95C62.3 83.95 60.7 85.45 60.7 88.4C60.7 91.35 62.3 91.95 64.3 91.95C64.7662 91.95 65.2278 91.8582 65.6585 91.6798C66.0892 91.5014 66.4806 91.2399 66.8102 90.9102C67.1399 90.5806 67.4014 90.1892 67.5798 89.7585C67.7582 89.3278 67.85 88.8662 67.85 88.4C67.85 85.45 66.25 83.95 64.3 83.95ZM14.3 75C6.4 75 0 68.6 0 60.7V41.8C0 33.9 6.4 27.5 14.3 27.5H50C50 25.55 48.4 22.7 46.45 22.7H25V14.3C25 6.4 31.4 0 39.3 0H60.7C68.6 0 75 6.4 75 14.3V33.05C75 40.95 68.6 47.3 60.7 47.3H34.45C26.55 47.3 20.2 53.7 20.2 61.6V75H14.3ZM35.7 16.05C37.7 16.05 39.3 14.55 39.3 11.6C39.3 8.65 37.7 8.05 35.7 8.05C33.75 8.05 32.15 8.65 32.15 11.6C32.15 14.55 33.75 16.05 35.7 16.05Z" fill="white"/>
</svg>
