<?xml version="1.0" standalone="no"?>
<!DOCTYPE svg PUBLIC "-//W3C//DTD SVG 20010904//EN"
 "http://www.w3.org/TR/2001/REC-SVG-20010904/DTD/svg10.dtd">
<svg version="1.0" xmlns="http://www.w3.org/2000/svg"
 width="225.000000pt" height="225.000000pt" viewBox="0 0 225.000000 225.000000"
 preserveAspectRatio="xMidYMid meet">
<g transform="translate(0.000000,225.000000) scale(0.100000,-0.100000)"
fill="#FFFFFF" stroke="none">
<path d="M840 2211 c-442 -96 -714 -500 -686 -1015 20 -365 142 -653 375 -887
148 -149 349 -267 486 -286 l45 -6 0 215 c0 171 3 218 14 234 17 22 13 23 102
-49 71 -57 219 -131 292 -146 115 -24 236 -8 351 45 56 26 90 51 150 111 67
68 122 147 110 156 -2 2 -139 46 -304 98 -211 67 -301 100 -303 111 -2 10 20
29 65 53 38 21 97 68 133 104 278 282 226 820 -108 1104 -65 55 -208 129 -297
153 -93 26 -319 28 -425 5z m317 -459 c104 -36 191 -127 225 -234 54 -172 -31
-358 -200 -436 -47 -22 -72 -26 -142 -27 -73 0 -94 4 -145 28 -205 96 -278
352 -152 530 43 61 125 123 185 141 65 20 167 19 229 -2z"/>
</g>
</svg>
