<svg width="112" height="100" viewBox="0 0 112 100" fill="none" xmlns="http://www.w3.org/2000/svg">
<path d="M55.8904 40.1737C61.2455 40.1737 65.6127 44.5409 65.6127 50C65.6127 55.1991 61.2455 59.6184 55.8904 59.6184C50.5353 59.6184 46.1681 55.1991 46.1681 50C46.1681 44.5409 50.5353 40.1737 55.8904 40.1737ZM31.8185 91.5929C35.094 93.5685 42.2688 90.553 50.5353 82.7544C47.8318 79.6869 45.1803 76.3595 42.6847 72.8761C38.4214 72.4601 34.2101 71.8363 30.2068 71.0044C27.5553 82.1305 28.5431 89.7732 31.8185 91.5929ZM35.5099 61.75L34.0022 59.0984C33.4303 60.6062 32.8584 62.1139 32.4944 63.5697C33.8982 63.8816 35.4579 64.1416 37.0696 64.4015C36.5497 63.5177 36.0298 62.6338 35.5099 61.75ZM69.5121 57.7987L73.7234 50L69.5121 42.2013C67.9523 39.4458 66.2886 37.0022 64.7809 34.5586C61.9734 34.4027 59.0099 34.4027 55.8904 34.4027C52.771 34.4027 49.8075 34.4027 46.9999 34.5586C45.4922 37.0022 43.8285 39.4458 42.2688 42.2013L38.0575 50L42.2688 57.7987C43.8285 60.5542 45.4922 62.9978 46.9999 65.4414C49.8075 65.5973 52.771 65.5973 55.8904 65.5973C59.0099 65.5973 61.9734 65.5973 64.7809 65.4414C66.2886 62.9978 67.9523 60.5542 69.5121 57.7987ZM55.8904 22.8607C54.9026 24.0045 53.8628 25.2003 52.8229 26.604C53.8628 26.604 54.8506 26.604 55.8904 26.604C56.9302 26.604 57.9181 26.604 58.9579 26.604C57.9181 25.2003 56.8782 24.0045 55.8904 22.8607ZM55.8904 77.1393C56.8782 75.9955 57.9181 74.7997 58.9579 73.396C57.9181 73.396 56.9302 73.396 55.8904 73.396C54.8506 73.396 53.8628 73.396 52.8229 73.396C53.8628 74.7997 54.9026 75.9955 55.8904 77.1393ZM79.9103 8.40713C76.6869 6.43147 69.5121 9.44695 61.2455 17.2456C63.949 20.3131 66.6006 23.6405 69.0962 27.1239C73.3594 27.5398 77.5707 28.1637 81.574 28.9956C84.2256 17.8695 83.2377 10.2268 79.9103 8.40713ZM76.2709 38.25L77.7787 40.9016C78.3506 39.3938 78.9225 37.8861 79.2864 36.4303C77.8826 36.1184 76.3229 35.8584 74.7112 35.5985C75.2311 36.4823 75.751 37.3662 76.2709 38.25ZM83.8096 1.5963C91.4523 5.96355 92.2842 17.4536 89.0607 30.8673C102.266 34.7666 111.781 41.2135 111.781 50C111.781 58.7865 102.266 65.2334 89.0607 69.1327C92.2842 82.5464 91.4523 94.0364 83.8096 98.4037C76.2189 102.771 65.8727 97.7798 55.8904 88.2654C45.9081 97.7798 35.5619 102.771 27.9192 98.4037C20.3285 94.0364 19.4967 82.5464 22.7201 69.1327C9.51437 65.2334 0 58.7865 0 50C0 41.2135 9.51437 34.7666 22.7201 30.8673C19.4967 17.4536 20.3285 5.96355 27.9192 1.5963C35.5619 -2.77095 45.9081 2.22019 55.8904 11.7346C65.8727 2.22019 76.2189 -2.77095 83.8096 1.5963ZM82.3019 50C84.0696 53.8993 85.6293 57.7987 86.9291 61.75C97.8472 58.4745 103.982 53.7953 103.982 50C103.982 46.2046 97.8472 41.5255 86.9291 38.25C85.6293 42.2013 84.0696 46.1007 82.3019 50ZM29.4789 50C27.7112 46.1007 26.1515 42.2013 24.8517 38.25C13.9336 41.5255 7.79866 46.2046 7.79866 50C7.79866 53.7953 13.9336 58.4745 24.8517 61.75C26.1515 57.7987 27.7112 53.8993 29.4789 50ZM76.2709 61.75C75.751 62.6338 75.2311 63.5177 74.7112 64.4015C76.3229 64.1416 77.8826 63.8816 79.2864 63.5697C78.9225 62.1139 78.3506 60.6062 77.7787 59.0984L76.2709 61.75ZM61.2455 82.7544C69.5121 90.553 76.6869 93.5685 79.9103 91.5929C83.2377 89.7732 84.2256 82.1305 81.574 71.0044C77.5707 71.8363 73.3594 72.4601 69.0962 72.8761C66.6006 76.3595 63.949 79.6869 61.2455 82.7544ZM35.5099 38.25C36.0298 37.3662 36.5497 36.4823 37.0696 35.5985C35.4579 35.8584 33.8982 36.1184 32.4944 36.4303C32.8584 37.8861 33.4303 39.3938 34.0022 40.9016L35.5099 38.25ZM50.5353 17.2456C42.2688 9.44695 35.094 6.43147 31.8185 8.40713C28.5431 10.2268 27.5553 17.8695 30.2068 28.9956C34.2101 28.1637 38.4214 27.5398 42.6847 27.1239C45.1803 23.6405 47.8318 20.3131 50.5353 17.2456Z" fill="white"/>
</svg>
