<svg width="100" height="60" viewBox="0 0 100 60" fill="none" xmlns="http://www.w3.org/2000/svg">
<path d="M50 0C36.65 0 28.35 6.65 25 20C30 13.35 35.85 10.85 42.5 12.5C46.3 13.45 49.05 16.2 52.05 19.25C56.95 24.25 62.5 30 75 30C88.35 30 96.65 23.35 100 10C95 16.65 89.15 19.15 82.5 17.5C78.7 16.55 76 13.8 72.95 10.75C68.05 5.75 62.5 0 50 0ZM25 30C11.65 30 3.35 36.65 0 50C5 43.35 10.85 40.85 17.5 42.5C21.3 43.45 24 46.2 27.05 49.25C31.95 54.25 37.5 60 50 60C63.35 60 71.65 53.35 75 40C70 46.65 64.15 49.15 57.5 47.5C53.7 46.55 51 43.8 47.95 40.75C43.05 35.75 37.5 30 25 30Z" fill="white"/>
</svg>
