<svg width="75" height="75" viewBox="0 0 75 75" fill="none" xmlns="http://www.w3.org/2000/svg">
<path d="M0 0H75V75H0V0ZM44.625 61.9167C46.7083 66 50.9167 69.125 57.5 69.125C64.1667 69.125 69.1667 65.6667 69.1667 59.2917C69.1667 53.4167 65.7917 50.7917 59.7917 48.2083L58.0417 47.4583C55 46.1667 53.7083 45.2917 53.7083 43.2083C53.7083 41.5 55 40.1667 57.0833 40.1667C59.0833 40.1667 60.4167 41.0417 61.625 43.2083L67.0833 39.5833C64.7917 35.5833 61.5417 34.0417 57.0833 34.0417C50.7917 34.0417 46.75 38.0417 46.75 43.3333C46.75 49.0833 50.125 51.7917 55.2083 53.9583L56.9583 54.7083C60.2083 56.125 62.125 57 62.125 59.4167C62.125 61.4167 60.25 62.875 57.3333 62.875C53.875 62.875 51.875 61.0833 50.375 58.5833L44.625 61.9167ZM41.6667 34.375H20.8333V40.625H27.0833V70.8333H34.375V40.625H41.6667V34.375Z" fill="white"/>
</svg>
