<svg width="72" height="72" viewBox="0 0 72 72" fill="none" xmlns="http://www.w3.org/2000/svg">
<path d="M54.0179 52.4183V19.5767L32.4394 35.9975M0.862836 26.0871C-0.216089 24.9297 -0.252054 23.1213 0.790908 21.9277L5.10661 17.9129C5.82589 17.2619 7.58814 16.9725 8.88285 17.9129L21.1826 27.353L49.7022 1.13042C50.8531 -0.0269907 52.8311 -0.497189 55.0968 0.696393L69.4825 7.6047C70.7772 8.36425 72 9.55783 72 11.7641V60.5925C72 62.0393 70.957 63.5945 69.8421 64.2094L54.0179 71.8049C52.8671 72.2751 50.7092 71.8411 49.954 71.0815L21.1107 44.6781L8.88285 54.082C7.51621 55.0224 5.82589 54.7693 5.10661 54.082L0.790908 50.1034C-0.359946 48.9099 -0.21609 46.9567 0.970729 45.7631L11.76 35.9975" fill="white"/>
</svg>
